<svg width="24" height="24" viewBox="0 0 24 24" fill="none" xmlns="http://www.w3.org/2000/svg">
<path fill-rule="evenodd" clip-rule="evenodd" d="M7.19575 5.08119e-07C7.34252 -0.000166159 7.48641 0.0406713 7.61119 0.117904C7.73598 0.195136 7.83716 0.306608 7.90246 0.438016L11.106 6.84461C11.1676 6.96859 11.1955 7.10663 11.1867 7.2448C11.178 7.38306 11.1329 7.51657 11.056 7.63186L8.82675 10.9712L8.93747 11.1875C9.79076 12.8541 11.1468 14.2101 12.8137 15.0633L13.0297 15.1739L16.3715 12.947C16.4868 12.8701 16.6203 12.825 16.7586 12.8163C16.8968 12.8075 17.0351 12.8355 17.1591 12.8971L23.5662 16.1004C23.6972 16.1658 23.8073 16.2664 23.8843 16.3909C23.9613 16.5154 24.0021 16.659 24.002 16.8053C24.002 18.7135 23.244 20.5435 21.8946 21.8927C20.5453 23.2419 18.7154 23.9999 16.8072 24C12.3512 23.9948 8.07926 22.2225 4.92842 19.072C1.77764 15.9214 0.00523579 11.6499 0 7.19442C6.34168e-05 5.28638 0.758121 3.45649 2.10744 2.10728C3.45681 0.758017 5.28743 5.08119e-07 7.19575 5.08119e-07ZM9.49097 7.13833L6.71567 1.58818L6.42145 1.62908C5.07801 1.81583 3.84743 2.4821 2.95675 3.50498C2.06607 4.52787 1.57541 5.83888 1.57528 7.19516C1.58019 11.2329 3.18645 15.1038 6.04175 17.9588C8.89705 20.8139 12.7688 22.42 16.8068 22.4249C18.1631 22.4248 19.4737 21.9342 20.4967 21.0436C21.5196 20.153 22.186 18.9225 22.3727 17.5791L22.4136 17.2849L16.8631 14.5098L13.5437 16.7233C13.4359 16.7947 13.3122 16.8386 13.1835 16.8509C13.0548 16.8633 12.925 16.8438 12.8056 16.7941C10.2792 15.7314 8.26936 13.7217 7.20655 11.1955C7.15684 11.0762 7.13729 10.9464 7.14964 10.8176C7.16199 10.6889 7.20609 10.5648 7.27762 10.457L9.49097 7.13833Z" fill="#DFC58A"/>
</svg>
