<svg width="24" height="24" viewBox="0 0 24 24" fill="none" xmlns="http://www.w3.org/2000/svg">
<path fill-rule="evenodd" clip-rule="evenodd" d="M1.7 6.66667V17.3333C1.7 18.6506 2.22327 19.9139 3.1547 20.8453C4.08613 21.7767 5.34942 22.3 6.66667 22.3H17.3333C18.6506 22.3 19.9139 21.7767 20.8453 20.8453C21.7767 19.9139 22.3 18.6506 22.3 17.3333V6.66667C22.3 5.34942 21.7767 4.08613 20.8453 3.1547C19.9139 2.22327 18.6506 1.7 17.3333 1.7H6.66667C5.34942 1.7 4.08613 2.22327 3.1547 3.1547C2.22327 4.08613 1.7 5.34942 1.7 6.66667ZM0 6.66667V17.3333C0 19.1014 0.702379 20.7971 1.95262 22.0474C3.20286 23.2976 4.89856 24 6.66667 24H17.3333C19.1014 24 20.7971 23.2976 22.0474 22.0474C23.2976 20.7971 24 19.1014 24 17.3333V6.66667C24 4.89856 23.2976 3.20286 22.0474 1.95262C20.7971 0.702379 19.1014 0 17.3333 0H6.66667C4.89856 0 3.20286 0.702379 1.95262 1.95262C0.702379 3.20286 0 4.89856 0 6.66667Z" fill="#DFC58A"/>
</svg>
