<svg width="24" height="24" viewBox="0 0 24 24" fill="none" xmlns="http://www.w3.org/2000/svg">
<mask id="path-1-outside-1_473_1761" maskUnits="userSpaceOnUse" x="-0.5" y="0.5" width="25" height="23" fill="black">
<rect fill="white" x="-0.5" y="0.5" width="25" height="23"/>
<path d="M22.8924 1.8911C22.6562 1.69535 22.3715 1.56716 22.0684 1.52011C21.7653 1.47307 21.4551 1.50892 21.1707 1.62386L1.54759 9.54564C1.23049 9.67595 0.960526 9.89962 0.773528 10.187C0.586531 10.4743 0.491349 10.8117 0.500618 11.1544C0.509887 11.4971 0.623168 11.8289 0.825423 12.1057C1.02768 12.3825 1.30934 12.5913 1.63302 12.7043L5.86715 14.1741L8.16164 21.7596C8.16602 21.775 8.18026 21.7848 8.18683 21.799C8.21047 21.8596 8.245 21.9152 8.28869 21.9633C8.35508 22.0375 8.44078 22.0917 8.53621 22.1199C8.54716 22.1243 8.55483 22.1342 8.56578 22.1364H8.57235L8.57564 22.1375C8.66037 22.1557 8.74842 22.1512 8.83082 22.1243C8.83959 22.1221 8.84835 22.1221 8.8582 22.1189C8.93733 22.0911 9.00893 22.0454 9.06739 21.9852C9.07396 21.9776 9.08492 21.9765 9.09149 21.9699L12.3914 18.3272L17.2071 22.0564C17.4995 22.2853 17.8598 22.4091 18.2311 22.4091C19.035 22.4091 19.7283 21.8461 19.8937 21.0609L23.4663 3.51751C23.5269 3.21969 23.5055 2.91101 23.4044 2.62438C23.3034 2.33776 23.1264 2.08394 22.8924 1.89M9.35872 15.6143L8.5844 19.3786L6.96895 14.0361L14.9805 9.86326L9.50767 15.3372C9.43188 15.4129 9.38008 15.5093 9.35872 15.6143ZM18.8204 20.8407C18.7998 20.94 18.754 21.0324 18.6875 21.1089C18.6209 21.1855 18.5358 21.2436 18.4403 21.2777C18.3471 21.3136 18.2462 21.3246 18.1475 21.3096C18.0488 21.2946 17.9557 21.2542 17.8774 21.1923L12.6608 17.152C12.5518 17.0678 12.415 17.0278 12.2778 17.04C12.1406 17.0522 12.013 17.1156 11.9204 17.2177L9.62377 19.7488L10.397 15.9954L18.2705 8.12075C18.3628 8.02824 18.4189 7.90582 18.4287 7.77558C18.4386 7.64534 18.4016 7.51586 18.3244 7.4105C18.2472 7.30514 18.1349 7.23085 18.0077 7.20102C17.8806 7.1712 17.7469 7.18781 17.6309 7.24786L6.28115 13.1599L1.99116 11.6682C1.87741 11.6306 1.77821 11.5585 1.70734 11.462C1.63648 11.3654 1.59748 11.2491 1.59578 11.1293C1.59032 11.0085 1.62261 10.889 1.68816 10.7873C1.75371 10.6856 1.84927 10.6069 1.96159 10.562L21.5814 2.64023C21.6819 2.59752 21.7924 2.5837 21.9004 2.60034C22.0083 2.61698 22.1095 2.66342 22.1925 2.73442C22.2751 2.80122 22.3374 2.88965 22.3726 2.98983C22.4078 3.09001 22.4145 3.198 22.3919 3.30175L18.8204 20.8407Z"/>
</mask>
<path d="M22.8924 1.8911C22.6562 1.69535 22.3715 1.56716 22.0684 1.52011C21.7653 1.47307 21.4551 1.50892 21.1707 1.62386L1.54759 9.54564C1.23049 9.67595 0.960526 9.89962 0.773528 10.187C0.586531 10.4743 0.491349 10.8117 0.500618 11.1544C0.509887 11.4971 0.623168 11.8289 0.825423 12.1057C1.02768 12.3825 1.30934 12.5913 1.63302 12.7043L5.86715 14.1741L8.16164 21.7596C8.16602 21.775 8.18026 21.7848 8.18683 21.799C8.21047 21.8596 8.245 21.9152 8.28869 21.9633C8.35508 22.0375 8.44078 22.0917 8.53621 22.1199C8.54716 22.1243 8.55483 22.1342 8.56578 22.1364H8.57235L8.57564 22.1375C8.66037 22.1557 8.74842 22.1512 8.83082 22.1243C8.83959 22.1221 8.84835 22.1221 8.8582 22.1189C8.93733 22.0911 9.00893 22.0454 9.06739 21.9852C9.07396 21.9776 9.08492 21.9765 9.09149 21.9699L12.3914 18.3272L17.2071 22.0564C17.4995 22.2853 17.8598 22.4091 18.2311 22.4091C19.035 22.4091 19.7283 21.8461 19.8937 21.0609L23.4663 3.51751C23.5269 3.21969 23.5055 2.91101 23.4044 2.62438C23.3034 2.33776 23.1264 2.08394 22.8924 1.89M9.35872 15.6143L8.5844 19.3786L6.96895 14.0361L14.9805 9.86326L9.50767 15.3372C9.43188 15.4129 9.38008 15.5093 9.35872 15.6143ZM18.8204 20.8407C18.7998 20.94 18.754 21.0324 18.6875 21.1089C18.6209 21.1855 18.5358 21.2436 18.4403 21.2777C18.3471 21.3136 18.2462 21.3246 18.1475 21.3096C18.0488 21.2946 17.9557 21.2542 17.8774 21.1923L12.6608 17.152C12.5518 17.0678 12.415 17.0278 12.2778 17.04C12.1406 17.0522 12.013 17.1156 11.9204 17.2177L9.62377 19.7488L10.397 15.9954L18.2705 8.12075C18.3628 8.02824 18.4189 7.90582 18.4287 7.77558C18.4386 7.64534 18.4016 7.51586 18.3244 7.4105C18.2472 7.30514 18.1349 7.23085 18.0077 7.20102C17.8806 7.1712 17.7469 7.18781 17.6309 7.24786L6.28115 13.1599L1.99116 11.6682C1.87741 11.6306 1.77821 11.5585 1.70734 11.462C1.63648 11.3654 1.59748 11.2491 1.59578 11.1293C1.59032 11.0085 1.62261 10.889 1.68816 10.7873C1.75371 10.6856 1.84927 10.6069 1.96159 10.562L21.5814 2.64023C21.6819 2.59752 21.7924 2.5837 21.9004 2.60034C22.0083 2.61698 22.1095 2.66342 22.1925 2.73442C22.2751 2.80122 22.3374 2.88965 22.3726 2.98983C22.4078 3.09001 22.4145 3.198 22.3919 3.30175L18.8204 20.8407Z" fill="#DFC58A"/>
<path d="M21.1707 1.62386L21.283 1.90205L21.2831 1.902L21.1707 1.62386ZM1.54759 9.54564L1.43529 9.26745L1.43356 9.26816L1.54759 9.54564ZM1.63302 12.7043L1.53416 12.9875L1.53464 12.9877L1.63302 12.7043ZM5.86715 14.1741L6.1543 14.0872L6.11002 13.9408L5.96553 13.8907L5.86715 14.1741ZM8.16164 21.7596L8.45013 21.6772L8.44879 21.6728L8.16164 21.7596ZM8.18683 21.799L8.46627 21.6899L8.46299 21.6815L8.45922 21.6733L8.18683 21.799ZM8.28869 21.9633L8.5122 21.7632L8.51072 21.7616L8.28869 21.9633ZM8.53621 22.1199L8.64763 21.8414L8.6347 21.8362L8.62135 21.8323L8.53621 22.1199ZM8.56578 22.1364L8.50695 22.4306L8.53607 22.4364H8.56578V22.1364ZM8.57235 22.1364L8.66717 21.8518L8.62101 21.8364H8.57235V22.1364ZM8.57564 22.1375L8.48082 22.4221L8.49643 22.4273L8.51252 22.4308L8.57564 22.1375ZM8.83082 22.1243L8.75806 21.8333L8.74789 21.8358L8.73791 21.8391L8.83082 22.1243ZM8.8582 22.1189L8.95308 22.4035L8.95753 22.4019L8.8582 22.1189ZM9.06739 21.9852L9.28247 22.1944L9.28904 22.1876L9.29517 22.1805L9.06739 21.9852ZM9.09149 21.9699L9.30362 22.182L9.30885 22.1768L9.31382 22.1713L9.09149 21.9699ZM12.3914 18.3272L12.5751 18.09L12.3555 17.9199L12.1691 18.1258L12.3914 18.3272ZM17.2071 22.0564L17.392 21.8202L17.3908 21.8192L17.2071 22.0564ZM19.8937 21.0609L20.1872 21.1227L20.1876 21.1207L19.8937 21.0609ZM23.4663 3.51751L23.7603 3.57738L23.7603 3.57733L23.4663 3.51751ZM9.35872 15.6143L9.65257 15.6747L9.6527 15.6741L9.35872 15.6143ZM8.5844 19.3786L8.29724 19.4654L8.87825 19.439L8.5844 19.3786ZM6.96895 14.0361L6.83036 13.77L6.60981 13.8849L6.68179 14.1229L6.96895 14.0361ZM14.9805 9.86326L15.1927 10.0754L14.8419 9.59719L14.9805 9.86326ZM9.50767 15.3372L9.71972 15.5494L9.71983 15.5493L9.50767 15.3372ZM18.8204 20.8407L19.1141 20.9015L19.1143 20.9006L18.8204 20.8407ZM18.4403 21.2777L18.3393 20.9951L18.3326 20.9977L18.4403 21.2777ZM17.8774 21.1923L18.0633 20.9569L18.0611 20.9551L17.8774 21.1923ZM12.6608 17.152L12.8445 16.9148L12.8441 16.9145L12.6608 17.152ZM11.9204 17.2177L12.1426 17.4193L12.1427 17.4192L11.9204 17.2177ZM9.62377 19.7488L9.32994 19.6882L9.10852 20.7631L9.84593 19.9504L9.62377 19.7488ZM10.397 15.9954L10.1848 15.7833L10.1213 15.8469L10.1032 15.9349L10.397 15.9954ZM18.2705 8.12075L18.4827 8.33287L18.483 8.33253L18.2705 8.12075ZM17.6309 7.24786L17.493 6.98144L17.4923 6.98179L17.6309 7.24786ZM6.28115 13.1599L6.18262 13.4433L6.30491 13.4858L6.41974 13.426L6.28115 13.1599ZM1.99116 11.6682L2.0897 11.3848L2.08523 11.3833L1.99116 11.6682ZM1.59578 11.1293L1.8959 11.1251L1.89548 11.1158L1.59578 11.1293ZM1.96159 10.562L2.07294 10.8406L2.07391 10.8402L1.96159 10.562ZM21.5814 2.64023L21.6937 2.91846L21.6987 2.91635L21.5814 2.64023ZM22.1925 2.73442L21.9975 2.96249L22.0038 2.96763L22.1925 2.73442ZM22.3919 3.30175L22.0987 3.23783L22.0979 3.24189L22.3919 3.30175ZM23.0838 1.66013C22.806 1.42983 22.471 1.27901 22.1144 1.22366L22.0224 1.81656C22.272 1.85531 22.5065 1.96088 22.7009 2.12207L23.0838 1.66013ZM22.1144 1.22366C21.7578 1.16831 21.3929 1.21049 21.0583 1.34572L21.2831 1.902C21.5173 1.80734 21.7728 1.77782 22.0224 1.81656L22.1144 1.22366ZM21.0584 1.34568L1.43529 9.26746L1.6599 9.82383L21.283 1.90205L21.0584 1.34568ZM1.43356 9.26816C1.06017 9.4216 0.742279 9.68498 0.522085 10.0233L1.02497 10.3506C1.17877 10.1143 1.40082 9.9303 1.66162 9.82313L1.43356 9.26816ZM0.522085 10.0233C0.301892 10.3617 0.189814 10.759 0.200728 11.1625L0.800508 11.1463C0.792885 10.8645 0.87117 10.5869 1.02497 10.3506L0.522085 10.0233ZM0.200728 11.1625C0.211642 11.5661 0.345032 11.9568 0.583192 12.2827L1.06765 11.9287C0.901303 11.7011 0.808132 11.4282 0.800508 11.1463L0.200728 11.1625ZM0.583192 12.2827C0.821352 12.6087 1.15302 12.8545 1.53416 12.9875L1.73188 12.421C1.46566 12.3281 1.234 12.1564 1.06765 11.9287L0.583192 12.2827ZM1.53464 12.9877L5.76877 14.4575L5.96553 13.8907L1.7314 12.4209L1.53464 12.9877ZM5.58 14.2609L7.87449 21.8465L8.44879 21.6728L6.1543 14.0872L5.58 14.2609ZM7.87319 21.842C7.88383 21.8793 7.89915 21.9084 7.91173 21.9287C7.92361 21.9478 7.93526 21.9623 7.93916 21.9672C7.94028 21.9686 7.94136 21.9699 7.94187 21.9705C7.94219 21.9709 7.94238 21.9712 7.94254 21.9714C7.94269 21.9715 7.94275 21.9716 7.94274 21.9716C7.94274 21.9716 7.94265 21.9715 7.94249 21.9713C7.94233 21.9711 7.94208 21.9708 7.94178 21.9704C7.94117 21.9696 7.94021 21.9683 7.93903 21.9667C7.9347 21.9608 7.92432 21.9462 7.91444 21.9248L8.45922 21.6733C8.44606 21.6448 8.43143 21.6236 8.42245 21.6113C8.41788 21.6051 8.41386 21.6 8.41152 21.5971C8.41034 21.5956 8.40924 21.5943 8.40867 21.5936C8.40795 21.5927 8.40778 21.5925 8.40768 21.5923C8.40746 21.5921 8.40899 21.594 8.41117 21.5969C8.41343 21.6 8.41707 21.6051 8.42127 21.6118C8.42975 21.6255 8.44164 21.6476 8.4501 21.6772L7.87319 21.842ZM7.9074 21.9082C7.94436 22.0028 7.99834 22.0899 8.06666 22.1651L8.51072 21.7616C8.49165 21.7406 8.47658 21.7163 8.46627 21.6899L7.9074 21.9082ZM8.06518 22.1634C8.16868 22.279 8.30229 22.3636 8.45107 22.4076L8.62135 21.8323C8.57926 21.8198 8.54147 21.7959 8.51219 21.7632L8.06518 22.1634ZM8.42479 22.3985C8.40312 22.3898 8.38772 22.3803 8.38079 22.3758C8.37726 22.3735 8.37483 22.3718 8.37456 22.3716C8.37443 22.3715 8.37441 22.3715 8.37507 22.372C8.37554 22.3723 8.37672 22.3732 8.378 22.3741C8.38217 22.377 8.39697 22.3875 8.41652 22.398C8.43737 22.4092 8.46798 22.4228 8.50695 22.4306L8.62462 21.8422C8.6581 21.8489 8.68365 21.8604 8.69964 21.869C8.70756 21.8732 8.71368 21.877 8.7175 21.8795C8.72122 21.8819 8.72379 21.8837 8.72399 21.8839C8.7241 21.884 8.72412 21.884 8.72342 21.8835C8.72292 21.8831 8.72173 21.8823 8.72042 21.8813C8.7178 21.8795 8.71299 21.8761 8.70703 21.8723C8.69524 21.8646 8.67477 21.8523 8.64763 21.8414L8.42479 22.3985ZM8.56578 22.4364H8.57235V21.8364H8.56578V22.4364ZM8.47754 22.421L8.48082 22.4221L8.67045 21.8528L8.66717 21.8518L8.47754 22.421ZM8.51252 22.4308C8.64906 22.4601 8.79094 22.4528 8.92374 22.4096L8.73791 21.8391C8.70589 21.8495 8.67168 21.8513 8.63875 21.8442L8.51252 22.4308ZM8.90359 22.4154C8.89462 22.4176 8.88784 22.4188 8.88563 22.4191C8.88452 22.4193 8.88389 22.4194 8.88462 22.4193C8.88465 22.4193 8.88723 22.4189 8.88906 22.4186C8.8979 22.4173 8.9231 22.4134 8.95307 22.4035L8.76334 21.8342C8.77362 21.8308 8.78242 21.8287 8.78886 21.8273C8.79202 21.8266 8.79458 21.8262 8.79631 21.8259C8.79799 21.8256 8.7991 21.8254 8.79914 21.8254C8.79917 21.8254 8.79907 21.8254 8.79866 21.8255C8.79858 21.8255 8.79738 21.8256 8.79686 21.8257C8.79535 21.826 8.79251 21.8264 8.78919 21.8269C8.78257 21.828 8.77141 21.83 8.75806 21.8333L8.90359 22.4154ZM8.95753 22.4019C9.08044 22.3588 9.19167 22.2878 9.28247 22.1944L8.85231 21.7761C8.8262 21.8029 8.79422 21.8234 8.75888 21.8358L8.95753 22.4019ZM9.29517 22.1805C9.27196 22.2075 9.2482 22.2248 9.232 22.2349C9.22402 22.2399 9.21739 22.2435 9.21329 22.2456C9.21119 22.2467 9.20951 22.2475 9.20845 22.248C9.20792 22.2483 9.20749 22.2485 9.20721 22.2486C9.20694 22.2487 9.20677 22.2488 9.20677 22.2488C9.20676 22.2488 9.20678 22.2488 9.20684 22.2488C9.20691 22.2487 9.20699 22.2487 9.20712 22.2486C9.20733 22.2485 9.20779 22.2483 9.20827 22.2481C9.20923 22.2476 9.21096 22.2468 9.213 22.2459C9.21696 22.2439 9.22388 22.2405 9.23212 22.2359C9.24831 22.2269 9.27569 22.21 9.30362 22.182L8.87935 21.7578C8.904 21.7331 8.92755 21.7188 8.93963 21.7121C8.94581 21.7086 8.95062 21.7063 8.95242 21.7054C8.9533 21.705 8.95556 21.7039 8.95211 21.7055C8.94936 21.7068 8.93274 21.7144 8.91401 21.7261C8.8937 21.7388 8.86611 21.7591 8.83961 21.79L9.29517 22.1805ZM9.31382 22.1713L12.6137 18.5286L12.1691 18.1258L8.86915 21.7685L9.31382 22.1713ZM12.2077 18.5644L17.0234 22.2936L17.3908 21.8192L12.5751 18.09L12.2077 18.5644ZM17.0222 22.2927C17.3676 22.563 17.7931 22.7091 18.2311 22.7091V22.1091C17.9266 22.1091 17.6314 22.0076 17.392 21.8202L17.0222 22.2927ZM18.2311 22.7091C19.1768 22.7091 19.9926 22.0468 20.1872 21.1227L19.6001 20.999C19.464 21.6455 18.8932 22.1091 18.2311 22.1091V22.7091ZM20.1876 21.1207L23.7603 3.57738L23.1723 3.45765L19.5997 21.001L20.1876 21.1207ZM23.7603 3.57733C23.8317 3.22629 23.8065 2.86245 23.6874 2.52462L23.1215 2.72415C23.2045 2.95956 23.2221 3.21309 23.1723 3.45769L23.7603 3.57733ZM23.6874 2.52462C23.5682 2.18678 23.3596 1.88761 23.0838 1.65902L22.701 2.12099C22.8932 2.28027 23.0385 2.48874 23.1215 2.72415L23.6874 2.52462ZM9.06487 15.5539L8.29055 19.3181L8.87825 19.439L9.65257 15.6747L9.06487 15.5539ZM8.87156 19.2918L7.2561 13.9492L6.68179 14.1229L8.29724 19.4654L8.87156 19.2918ZM7.10753 14.3021L15.1191 10.1293L14.8419 9.59719L6.83036 13.77L7.10753 14.3021ZM14.7683 9.65115L9.29552 15.1251L9.71983 15.5493L15.1927 10.0754L14.7683 9.65115ZM9.29562 15.125C9.17815 15.2424 9.09785 15.3918 9.06474 15.5545L9.6527 15.6741C9.66231 15.6269 9.68562 15.5835 9.71972 15.5494L9.29562 15.125ZM18.5266 20.7799C18.5164 20.8288 18.4939 20.8743 18.4611 20.9121L18.9139 21.3058C19.0142 21.1904 19.0831 21.0512 19.1141 20.9015L18.5266 20.7799ZM18.4611 20.9121C18.4283 20.9498 18.3864 20.9784 18.3393 20.9952L18.5413 21.5602C18.6852 21.5087 18.8135 21.4211 18.9139 21.3058L18.4611 20.9121ZM18.3326 20.9977C18.288 21.0149 18.2397 21.0201 18.1925 21.013L18.1025 21.6062C18.2527 21.629 18.4063 21.6123 18.5481 21.5577L18.3326 20.9977ZM18.1925 21.013C18.1453 21.0058 18.1008 20.9865 18.0633 20.9569L17.6914 21.4277C17.8106 21.5219 17.9523 21.5834 18.1025 21.6062L18.1925 21.013ZM18.0611 20.9551L12.8445 16.9148L12.4771 17.3892L17.6937 21.4295L18.0611 20.9551ZM12.8441 16.9145C12.6754 16.7842 12.4637 16.7223 12.2513 16.7412L12.3043 17.3388C12.3663 17.3333 12.4282 17.3514 12.4775 17.3895L12.8441 16.9145ZM12.2513 16.7412C12.0389 16.76 11.8414 16.8583 11.6982 17.0162L12.1427 17.4192C12.1846 17.373 12.2423 17.3443 12.3043 17.3388L12.2513 16.7412ZM11.6983 17.0161L9.4016 19.5472L9.84593 19.9504L12.1426 17.4193L11.6983 17.0161ZM9.9176 19.8093L10.6908 16.056L10.1032 15.9349L9.32994 19.6882L9.9176 19.8093ZM10.6091 16.2076L18.4827 8.33287L18.0584 7.90864L10.1848 15.7833L10.6091 16.2076ZM18.483 8.33253C18.6258 8.18934 18.7126 7.99985 18.7279 7.79827L18.1296 7.75289C18.1251 7.81179 18.0998 7.86714 18.0581 7.90897L18.483 8.33253ZM18.7279 7.79827C18.7432 7.59668 18.6859 7.39626 18.5664 7.23318L18.0824 7.58782C18.1173 7.63545 18.1341 7.694 18.1296 7.75289L18.7279 7.79827ZM18.5664 7.23318C18.4469 7.07011 18.2731 6.95511 18.0762 6.90895L17.9392 7.4931C17.9967 7.50658 18.0475 7.54018 18.0824 7.58782L18.5664 7.23318ZM18.0762 6.90895C17.8794 6.86278 17.6726 6.8885 17.493 6.98144L17.7689 7.51427C17.8213 7.48712 17.8817 7.47961 17.9392 7.4931L18.0762 6.90895ZM17.4923 6.98179L6.14255 12.8938L6.41974 13.426L17.7695 7.51392L17.4923 6.98179ZM6.37967 12.8765L2.08969 11.3848L1.89263 11.9516L6.18262 13.4433L6.37967 12.8765ZM2.08523 11.3833C2.03072 11.3653 1.98318 11.3308 1.94922 11.2845L1.46547 11.6394C1.57323 11.7863 1.7241 11.8959 1.89708 11.9531L2.08523 11.3833ZM1.94922 11.2845C1.91526 11.2382 1.89657 11.1825 1.89575 11.1251L1.29581 11.1336C1.2984 11.3158 1.3577 11.4926 1.46547 11.6394L1.94922 11.2845ZM1.89548 11.1158C1.89283 11.0572 1.90849 10.9992 1.94029 10.9499L1.43603 10.6247C1.33673 10.7787 1.28782 10.9598 1.29609 11.1429L1.89548 11.1158ZM1.94029 10.9499C1.97209 10.9006 2.01845 10.8624 2.07294 10.8406L1.85024 10.2834C1.68009 10.3515 1.53532 10.4707 1.43603 10.6247L1.94029 10.9499ZM2.07391 10.8402L21.6937 2.91842L21.4691 2.36205L1.84927 10.2838L2.07391 10.8402ZM21.6987 2.91635C21.7479 2.89546 21.8019 2.8887 21.8547 2.89684L21.9461 2.30384C21.7829 2.2787 21.616 2.29957 21.4641 2.36412L21.6987 2.91635ZM21.8547 2.89684C21.9075 2.90498 21.9569 2.92768 21.9975 2.9624L22.3875 2.50645C22.2621 2.39915 22.1092 2.32899 21.9461 2.30384L21.8547 2.89684ZM22.0038 2.96763C22.0431 2.99945 22.0728 3.04156 22.0896 3.08927L22.6557 2.89038C22.602 2.73773 22.507 2.60299 22.3813 2.50121L22.0038 2.96763ZM22.0896 3.08927C22.1064 3.13699 22.1095 3.18842 22.0988 3.23783L22.685 3.36567C22.7195 3.20759 22.7093 3.04303 22.6557 2.89038L22.0896 3.08927ZM22.0979 3.24189L18.5264 20.7809L19.1143 20.9006L22.6858 3.36161L22.0979 3.24189Z" fill="#DFC58A" mask="url(#path-1-outside-1_473_1761)"/>
</svg>
