<svg width="24" height="24" viewBox="0 0 24 24" fill="none" xmlns="http://www.w3.org/2000/svg">
<path d="M18.9077 14.1918L15.1427 12.3094C15.0315 12.2541 14.9077 12.2291 14.7837 12.237C14.6598 12.2448 14.5401 12.2852 14.4367 12.3541L12.5919 13.5835C11.6579 13.1054 10.898 12.3457 10.4199 11.4118L11.6506 9.56824C11.7195 9.46491 11.7599 9.34523 11.7678 9.2213C11.7756 9.09736 11.7506 8.97355 11.6953 8.86235L9.8128 5.09765C9.75426 4.97986 9.66399 4.88077 9.55214 4.81155C9.4403 4.74233 9.31134 4.70573 9.1798 4.70588C7.99402 4.70588 6.85681 5.17689 6.01834 6.01529C5.17987 6.85369 4.70882 7.9908 4.70882 9.17647C4.71193 11.8589 5.77899 14.4305 7.67591 16.3273C9.57283 18.224 12.1447 19.291 14.8274 19.2941C16.0131 19.2941 17.1504 18.8231 17.9888 17.9847C18.8273 17.1463 19.2983 16.0092 19.2983 14.8235C19.2984 14.6923 19.2619 14.5637 19.1929 14.4521C19.1239 14.3405 19.0251 14.2504 18.9077 14.1918ZM14.8274 17.8824C12.5191 17.8796 10.3061 16.9614 8.67392 15.3294C7.04171 13.6973 6.12351 11.4846 6.12071 9.17647C6.12077 8.43823 6.38785 7.72492 6.87267 7.16815C7.35748 6.61138 8.02731 6.24871 8.75859 6.14706L10.2481 9.12588L9.02567 10.9588C8.96144 11.0555 8.92204 11.1665 8.91096 11.282C8.89987 11.3976 8.91745 11.5141 8.96214 11.6212C9.61128 13.1644 10.8391 14.3921 12.3824 15.0412C12.4896 15.0859 12.6061 15.1034 12.7216 15.0924C12.8371 15.0813 12.9482 15.0419 13.0449 14.9776L14.878 13.7553L17.857 15.2447C17.7554 15.9759 17.3927 16.6457 16.8359 17.1305C16.279 17.6152 15.5657 17.8823 14.8274 17.8824ZM12.0036 2.6449e-07C9.92315 -0.000436437 7.87833 0.539915 6.06975 1.56804C4.26117 2.59617 2.75094 4.07675 1.68724 5.86454C0.623537 7.65233 0.0428982 9.6859 0.00228721 11.7658C-0.0383238 13.8456 0.462488 15.9003 1.45559 17.7282L0.0884098 21.8306C-0.00837927 22.1208 -0.0224256 22.4322 0.0478452 22.73C0.118116 23.0277 0.269927 23.3 0.486263 23.5163C0.702598 23.7326 0.974909 23.8844 1.27267 23.9547C1.57044 24.0249 1.88189 24.0109 2.17212 23.9141L6.27484 22.5471C7.88084 23.4185 9.66466 23.9118 11.4903 23.9892C13.3159 24.0667 15.135 23.7262 16.8091 22.9939C18.4831 22.2616 19.9679 21.1567 21.15 19.7635C22.3322 18.3704 23.1806 16.7256 23.6305 14.9548C24.0804 13.184 24.12 11.3338 23.7462 9.54536C23.3725 7.75691 22.5952 6.07741 21.4737 4.63494C20.3523 3.19246 18.9162 2.0251 17.275 1.22186C15.6338 0.418614 13.8308 0.000706894 12.0036 2.6449e-07ZM12.0036 22.5882C10.1422 22.5887 8.31351 22.0985 6.70194 21.1671C6.5945 21.1053 6.47288 21.0725 6.34896 21.0718C6.273 21.0722 6.19758 21.0845 6.12541 21.1082L1.7262 22.5741C1.68474 22.5879 1.64025 22.59 1.59771 22.5799C1.55517 22.5699 1.51627 22.5482 1.48536 22.5173C1.45446 22.4864 1.43277 22.4475 1.42273 22.405C1.41269 22.3624 1.4147 22.3179 1.42853 22.2765L2.89454 17.8824C2.92626 17.7874 2.93742 17.6868 2.92728 17.5872C2.91713 17.4876 2.88592 17.3913 2.83571 17.3047C1.66767 15.2872 1.19818 12.9406 1.50005 10.629C1.80193 8.31742 2.85831 6.17007 4.5053 4.5201C6.1523 2.87012 8.29783 1.80976 10.609 1.50352C12.9202 1.19728 15.2679 1.66229 17.2879 2.82639C19.3078 3.99049 20.887 5.78862 21.7806 7.9418C22.6742 10.095 22.8321 12.4829 22.2299 14.7349C21.6277 16.987 20.299 18.9775 18.45 20.3974C16.601 21.8174 14.335 22.5875 12.0036 22.5882Z" fill="#DFC58A"/>
</svg>
